<svg xmlns="http://www.w3.org/2000/svg" xmlns:xlink="http://www.w3.org/1999/xlink" viewBox="0 0 358.27 412.43"><defs><style>.cls-1,.cls-3{font-size:182.55px;}.cls-1,.cls-3,.cls-4{fill:#fff;font-family:Giahfita;}.cls-2{font-size:12px;}.cls-3{font-weight:400;font-style:normal;}.cls-4{font-size:171.56px;}.cls-5{fill:#714695;stroke:#482e60;stroke-width:5px;}.cls-11,.cls-12,.cls-13,.cls-5{stroke-miterlimit:10;}.cls-6{mask:url(#mask);}.cls-7{fill:#946146;}.cls-8{mask:url(#mask-2);}.cls-9{fill:#8e9442;}.cls-10{fill:#449490;}.cls-11,.cls-13{fill:none;stroke-linecap:round;}.cls-11,.cls-12,.cls-13{stroke:#fafafa;}.cls-12{fill:#fdfdfd;stroke-width:0.25px;}.cls-13{stroke-width:2px;}.cls-14{mask:url(#mask-4);}.cls-15{mask:url(#mask-5);}.cls-16{mask:url(#mask-6);}.cls-17{fill:#fafafa;}.cls-18{filter:url(#luminosity-noclip-3);}.cls-19{filter:url(#luminosity-noclip-2);}.cls-20{filter:url(#luminosity-noclip);}</style><mask id="mask" x="2.5" y="102.8" width="355.77" height="193.5" maskUnits="userSpaceOnUse"><text class="cls-1" transform="translate(2.5 250.66)">adm</text></mask><mask id="mask-2" x="2.5" y="102.8" width="348.11" height="193.5" maskUnits="userSpaceOnUse"><text class="cls-1" transform="translate(2.5 250.66)">adm</text></mask><filter id="luminosity-noclip" x="10.2" y="229.86" width="334.35" height="181.85" filterUnits="userSpaceOnUse" color-interpolation-filters="sRGB"><feFlood flood-color="#fff" result="bg"/><feBlend in="SourceGraphic" in2="bg"/></filter><mask id="mask-4" x="10.2" y="229.86" width="334.35" height="181.85" maskUnits="userSpaceOnUse"><g class="cls-20"><text class="cls-4" transform="matrix(1, 0, 0, -1, 10.2, 272.75)">adm</text></g></mask><filter id="luminosity-noclip-2" x="10.2" y="229.86" width="327.15" height="181.85" filterUnits="userSpaceOnUse" color-interpolation-filters="sRGB"><feFlood flood-color="#fff" result="bg"/><feBlend in="SourceGraphic" in2="bg"/></filter><mask id="mask-5" x="10.2" y="229.86" width="327.15" height="181.85" maskUnits="userSpaceOnUse"><g class="cls-19"><text class="cls-4" transform="matrix(1, 0, 0, -1, 10.2, 272.75)">adm</text></g></mask><filter id="luminosity-noclip-3" x="10.92" y="229.86" width="325.51" height="181.85" filterUnits="userSpaceOnUse" color-interpolation-filters="sRGB"><feFlood flood-color="#fff" result="bg"/><feBlend in="SourceGraphic" in2="bg"/></filter><mask id="mask-6" x="10.92" y="229.86" width="325.51" height="181.85" maskUnits="userSpaceOnUse"><g class="cls-18"><text class="cls-4" transform="matrix(0.99, 0, 0, -1, 10.92, 272.75)">adm</text></g></mask></defs><title>adm_logo</title><g id="Camada_2" data-name="Camada 2"><g id="Camada_7" data-name="Camada 7"><polygon class="cls-5" points="2.5 104.55 2.5 307.88 178.59 409.54 354.68 307.88 354.68 104.55 178.59 2.89 2.5 104.55"/></g><g id="Camada_11" data-name="Camada 11"><text class="cls-1" transform="translate(2.5 250.66)">adm</text><g class="cls-6"><path class="cls-7" d="M239.27,253c17.3-6.25,32.15-15.6,47.29-26.06,43-29.7,68.6,26.33,71.71,26.89"/></g><g class="cls-8"><path class="cls-9" d="M140.2,259.26c50.1-78.64,83.35-65.14,110.46-5.73"/></g><g class="cls-8"><path class="cls-10" d="M5.09,252.51s15.29-91.09,121.51-15.18a321.66,321.66,0,0,0,28.08,18.09"/></g><line class="cls-11" x1="158.42" y1="135.54" x2="158.62" y2="131.8"/><line class="cls-11" x1="160.38" y1="136.29" x2="160.59" y2="132.34"/><line class="cls-11" x1="162.55" y1="137.55" x2="162.75" y2="133.6"/><line class="cls-11" x1="164.52" y1="138.65" x2="164.73" y2="134.7"/><line class="cls-11" x1="149.55" y1="132.7" x2="143.92" y2="134.38"/><line class="cls-11" x1="153.46" y1="133.67" x2="147.83" y2="135.35"/><line class="cls-11" x1="156.81" y1="134.85" x2="151.18" y2="136.53"/><line class="cls-11" x1="159.05" y1="136.09" x2="153.42" y2="137.78"/><line class="cls-11" x1="162.23" y1="137.14" x2="156.61" y2="138.82"/><path class="cls-12" d="M135.39,94.11a1.16,1.16,0,0,1,.67-.94c.67-.37,2.17-.94,2.17-.94l1.73-.57s.59-.27.58-.62a2.11,2.11,0,0,1,.53-1.54c.52-.64,1.39-1.73,1.54-1.9s1.23-1.46,1.58-1.77l.35-.31s1.86-1.58,2.13-1.68.31.18.25.33.79-.67,1-.8a1,1,0,0,1,.63-.13.35.35,0,0,1,.17.23c0,.06.44-.32.63-.34s.3.14.36.29a1.64,1.64,0,0,1,.1.58c0,.1,3.11-2.2,3.38-2.19s.32.08.36.13a.78.78,0,0,1,.09.38,1.94,1.94,0,0,1,0,.38l0,.14s1.58-.7,1.7-.72a1.19,1.19,0,0,1,.39,0s.18.06.2.14a1,1,0,0,1-.06.4s-1,.44-.84.47a9.34,9.34,0,0,0,1.29-.27A1.41,1.41,0,0,1,157,83a.29.29,0,0,1,0,.46c-.21.12-1.15.26-1.15.38s0,.67.5.7.12.48-.2.52-.25.21-.14.42a4.2,4.2,0,0,1,.76,2.13c-.06.91-.36,1.6.09,2.44s.44,1.71.69,1.92,1,.34,1,1a13.77,13.77,0,0,0,.25,2.37,5.06,5.06,0,0,0,1.54,1.53c1,.74,5,3.92,5.48,4.17s4.91,3.1,5.49,3.36,5.32,2.76,6.14,3.21a5.7,5.7,0,0,1,1.8,1.61c0,.2,1.14.08,1.93.52a3.73,3.73,0,0,1,1.08.75,21.39,21.39,0,0,0,3.56-.4s3.76-.7,5.65-.79,3.09-.46,4.15-.43,10.92-.38,12.18-.33,6.83-.36,8-.3,9.29-.3,10-.27,8.89,0,9.8,0,5.59.11,5.88.13,3.74,0,4.45.16,2.3.46-1.08.39-10,0-10,0l-9.32.15,10.26.18,9.84.32s.62.5-3.19.4-23-.22-22,0,7.06.33,7.43.46a.43.43,0,0,1,.33.42s0,.47-.36.45-7.92.3-8.71.48-4.51.28-3.29.59,1.41.41,1.33.58-1.17.33-4.32.36-12.07.18-12.07.18l-6.82.47s12,.93,13.43,1.18,1.34.77,1.35,1a12.78,12.78,0,0,1-2.71.17l-5.92-.32s-4.95-.45-5.87-.42-4.78-.19-5.44-.14-.65.47.22.48,8.82.75,9.21.76.83.57,0,.55h-.82s-10-1-10.19-.92-.27.15-.07.37,1.4.88,1.38,1.16-.86.3-.95.3-2.77-.13-3-.1a14.73,14.73,0,0,0-2.33.54,26.07,26.07,0,0,0-3,1.54c0,.24.58.36.76.5a2,2,0,0,1,.46.54,2.5,2.5,0,0,1-1.36.21c-.68,0-2.47.07-2.93,1.13s-.29,2.75-1.08,2.83-1.82,0-2.32.32-1.43-.16-1.46-.19-.47-.3-.52,0-.12.32-.12.32-2.42,11.53-2.19,11.88,2.42,3.63,5.27,4.08-2.14.35-2.14.35l-1.61.48-.92-1.06-5.71-3,2.33-1.14a5.7,5.7,0,0,0,1.63-2.43c.29-1.26,1-6.19,1.16-7s.34-2.16.34-2.27v-.11s-2.39-.07-3,0-3,.34-3,.34-.18.71-.82.75a7.19,7.19,0,0,1-1.94,0c-.33-.13-1.69.49-1.69.49s-4.16.94-4.77,1.09-3.23.87-3.46.92-3.28,1.06-1.85,2a14.39,14.39,0,0,0,2.32,1.27l-1.57.42-8.12-3.08,2.75-1a7.48,7.48,0,0,0,2.2,0,22.73,22.73,0,0,1,3.29-.91c1.56-.34,6.77-1.37,6.77-1.37s2-.27,1.74-.49a20.82,20.82,0,0,0-2.1-1,4.93,4.93,0,0,1-1.75-.64c-.49-.41-4.5-1.76-5.47-2.76a51.66,51.66,0,0,1-4.88-5.8c-.41-.9-2.23-6-2.33-6.62s-.7-5.34-.19-6.83,1.32-3.51,1.23-4.11a5.24,5.24,0,0,0-.81-2.54c-.63-.78-.39-.8-.4-1s-1-.1-1-.1-1.66.21-2.33.23a5.29,5.29,0,0,1-1.87-.08A1.26,1.26,0,0,1,135.39,94.11Z"/><path class="cls-13" d="M171,142c-4.69-2.2-14-8.21-27.85-12.41-10.86-3.3-16.58-9.92-19.21-15.37"/><line class="cls-11" x1="126.96" y1="118.59" x2="127.25" y2="113.1"/><line class="cls-11" x1="128.9" y1="120.02" x2="129.28" y2="115.22"/><line class="cls-11" x1="130.92" y1="122.31" x2="131.32" y2="117.3"/><line class="cls-11" x1="133.21" y1="123.99" x2="133.5" y2="118.5"/><line class="cls-11" x1="135.24" y1="125.93" x2="135.53" y2="120.44"/><line class="cls-11" x1="137.28" y1="127.42" x2="137.57" y2="121.93"/><line class="cls-11" x1="139.28" y1="127.87" x2="139.52" y2="123.32"/><line class="cls-11" x1="141.24" y1="128.62" x2="141.45" y2="124.68"/><line class="cls-11" x1="143.41" y1="129.88" x2="143.62" y2="125.94"/><line class="cls-11" x1="153.9" y1="133.81" x2="154.1" y2="130.09"/><line class="cls-11" x1="156.14" y1="134.61" x2="156.34" y2="130.95"/><line class="cls-11" x1="151.61" y1="133.01" x2="151.81" y2="129.29"/><line class="cls-11" x1="149.67" y1="132.08" x2="149.86" y2="128.36"/><line class="cls-11" x1="126.22" y1="118.79" x2="121.25" y2="116.46"/><line class="cls-11" x1="128.24" y1="121.58" x2="122.63" y2="119.14"/><line class="cls-11" x1="131.3" y1="124.33" x2="124.94" y2="122.7"/><line class="cls-11" x1="134.35" y1="126.58" x2="127.55" y2="125.6"/><line class="cls-11" x1="137.03" y1="128.14" x2="129.73" y2="128.07"/><line class="cls-11" x1="140.04" y1="129.37" x2="132.74" y2="130.14"/><line class="cls-11" x1="143.06" y1="130.65" x2="135.3" y2="131.92"/><line class="cls-11" x1="146.25" y1="131.55" x2="139.65" y2="133.52"/><line class="cls-11" x1="125.39" y1="116.3" x2="120.41" y2="113.97"/><line class="cls-11" x1="125.11" y1="117.11" x2="125.4" y2="111.63"/><line class="cls-11" x1="124.99" y1="115.98" x2="122.24" y2="111.22"/><g class="cls-14"><path class="cls-7" d="M232.71,270.59c16.26,5.88,30.22,14.67,44.45,24.5,40.37,27.9,64.46-24.75,67.39-25.28"/></g><g class="cls-15"><path class="cls-9" d="M139.61,264.67c47.09,73.91,78.33,61.23,103.81,5.39"/></g><g class="cls-16"><path class="cls-10" d="M13.34,271S27.63,356.62,127,285.29a299.77,299.77,0,0,1,26.26-17"/></g><rect class="cls-17" x="12.63" y="259.26" width="331.91" height="11.76" rx="1.68"/></g></g></svg>